<svg width="177" height="154" viewBox="0 0 177 154" version="1.1" xmlns="http://www.w3.org/2000/svg" xmlns:xlink="http://www.w3.org/1999/xlink">
<title>Logo Frame</title>
<desc>Created using Figma</desc>
<g id="Canvas" transform="translate(747 1840)">
<clipPath id="clip-0" clip-rule="evenodd">
<path d="M -747 -1840L -570 -1840L -570 -1686L -747 -1686L -747 -1840Z" fill="#FFFFFF"/>
</clipPath>
<g id="Logo Frame" clip-path="url(#clip-0)">
<g id="Component">
<mask id="mask0_alpha" mask-type="alpha">
<g id="NewLogo">
<g id="Vector">
<use xlink:href="#path0_fill" transform="translate(-693 -1809)" fill="#FFFFFF"/>
<use xlink:href="#path1_stroke" transform="translate(-693 -1809)"/>
</g>
<g id="Group">
<g id="Polygon">
<use xlink:href="#path2_fill" transform="matrix(0.695879 0.718159 -0.718159 0.695879 -676.574 -1788.37)" fill="#295F4E"/>
</g>
<g id="Polygon">
<use xlink:href="#path3_fill" transform="matrix(0.729613 0.683861 -0.7507 0.660643 -666.508 -1800.55)" fill="#295F4E"/>
</g>
<g id="Polygon">
<use xlink:href="#path4_fill" transform="matrix(0.729613 0.683861 -0.7507 0.660643 -664.467 -1801)" fill="#FFFFFF"/>
</g>
<g id="Polygon 2">
<use xlink:href="#path5_fill" transform="matrix(0.913546 0.406737 -0.406737 0.913546 -657.639 -1796.01)" fill="#295F4E"/>
</g>
<g id="Rectangle">
<use xlink:href="#path6_fill" transform="translate(-685 -1784)" fill="#FFFFFF"/>
</g>
<g id="Rectangle">
<use xlink:href="#path7_fill" transform="translate(-691 -1770)" fill="#295F4E"/>
</g>
</g>
<g id="Eggy">
<use xlink:href="#path8_fill" transform="translate(-685 -1765)" fill="#295F4E"/>
</g>
<g id="est">
<use xlink:href="#path9_fill" transform="translate(-664 -1787)" fill="#295F4E"/>
</g>
<g id="Vector">
<use xlink:href="#path10_stroke" transform="translate(-693 -1809)" fill="#ED2828"/>
</g>
</g>
</mask>
<g id="NewLogo" mask="url(#mask0_alpha)">
<g id="Vector">
<use xlink:href="#path0_fill" transform="translate(-693 -1809)" fill="#FFFFFF"/>
<use xlink:href="#path1_stroke" transform="translate(-693 -1809)"/>
</g>
<g id="Group">
<g id="Polygon">
<use xlink:href="#path2_fill" transform="matrix(0.695879 0.718159 -0.718159 0.695879 -676.574 -1788.37)" fill="#295F4E"/>
</g>
<g id="Polygon">
<use xlink:href="#path3_fill" transform="matrix(0.729613 0.683861 -0.7507 0.660643 -666.508 -1800.55)" fill="#295F4E"/>
</g>
<g id="Polygon">
<use xlink:href="#path11_fill" transform="matrix(0.695879 0.718159 -0.718159 0.695879 -675.886 -1793)" fill="#FFFFFF"/>
</g>
<g id="Polygon">
<use xlink:href="#path4_fill" transform="matrix(0.729613 0.683861 -0.7507 0.660643 -664.467 -1801)" fill="#FFFFFF"/>
</g>
<g id="Polygon 2">
<use xlink:href="#path5_fill" transform="matrix(0.913546 0.406737 -0.406737 0.913546 -657.639 -1796.01)" fill="#295F4E"/>
</g>
<g id="Rectangle">
<use xlink:href="#path6_fill" transform="translate(-685 -1784)" fill="#FFFFFF"/>
</g>
<g id="Rectangle">
<use xlink:href="#path7_fill" transform="translate(-691 -1770)" fill="#295F4E"/>
</g>
</g>
<g id="Eggy">
<use xlink:href="#path8_fill" transform="translate(-685 -1765)" fill="#295F4E"/>
</g>
<g id="est">
<use xlink:href="#path9_fill" transform="translate(-664 -1787)" fill="#295F4E"/>
</g>
<g id="Vector">
<use xlink:href="#path10_stroke" transform="translate(-693 -1809)"/>
</g>
</g>
</g>
</g>
</g>
<defs>
<path id="path0_fill" d="M 0.0870102 53.5C 0.469414 49 11.087 2.4071e-05 34.087 0C 57.087 2.4071e-05 67.7047 49 68.0871 53.5C 68.4695 58 69.0871 92 34.087 92C -0.912979 92 -0.295393 58 0.0870102 53.5Z"/>
<path id="path1_stroke" d="M 34.087 0L 34.087 -2L 34.087 -2L 34.087 0ZM 0.0870102 53.5L 2.07983 53.6693L 0.0870102 53.5ZM 34.087 92L 34.087 90L 34.087 90L 34.087 92ZM 34.087 -2C 27.563 -1.99999 22.0903 1.48677 17.6446 6.38198C 13.2009 11.275 9.60158 17.7631 6.77163 24.2643C 3.93309 30.7852 1.82139 37.4304 0.395365 42.7218C -1.01694 47.9623 -1.79402 52.0152 -1.90581 53.3307L 2.07983 53.6693C 2.15925 52.7348 2.85277 48.9753 4.25757 43.7626C 5.64865 38.6009 7.70055 32.1523 10.4392 25.8608C 13.1865 19.5495 16.5779 13.5063 20.6057 9.07117C 24.6316 4.63825 29.1111 2.00001 34.087 2L 34.087 -2ZM -1.90581 53.3307C -2.11074 55.7422 -2.37687 65.7641 2.00194 75.274C 4.20772 80.0645 7.61553 84.7739 12.8412 88.2783C 18.0752 91.7882 25.0003 94 34.087 94L 34.087 90C 25.6737 90 19.551 87.9618 15.0691 84.9561C 10.5787 81.9449 7.60232 77.873 5.63529 73.601C 1.6685 64.9859 1.90236 55.7578 2.07983 53.6693L -1.90581 53.3307ZM 34.087 2C 39.063 2.00001 43.5425 4.63825 47.5683 9.07117C 51.5961 13.5063 54.9876 19.5495 57.7349 25.8608C 60.4735 32.1523 62.5254 38.6009 63.9165 43.7626C 65.3213 48.9753 66.0148 52.7348 66.0943 53.6693L 70.0799 53.3307C 69.9681 52.0152 69.191 47.9623 67.7787 42.7218C 66.3527 37.4304 64.241 30.7852 61.4025 24.2643C 58.5725 17.7631 54.9732 11.275 50.5295 6.38198C 46.0838 1.48677 40.6111 -1.99999 34.087 -2L 34.087 2ZM 66.0943 53.6693C 66.2717 55.7578 66.5056 64.9859 62.5388 73.601C 60.5718 77.873 57.5954 81.9449 53.105 84.9561C 48.623 87.9618 42.5004 90 34.087 90L 34.087 94C 43.1737 94 50.0989 91.7882 55.3329 88.2783C 60.5586 84.7739 63.9664 80.0645 66.1721 75.274C 70.551 65.7641 70.2848 55.7422 70.0799 53.3307L 66.0943 53.6693Z"/>
<path id="path2_fill" d="M 10.698 0L 19.9628 17.2327L 1.43326 17.2327L 10.698 0Z"/>
<path id="path3_fill" d="M 15.64 0L 29.1847 25.1542L 2.09537 25.1542L 15.64 0Z"/>
<path id="path4_fill" d="M 12.4266 0L 23.1884 24.1953L 1.66485 24.1953L 12.4266 0Z"/>
<path id="path5_fill" d="M 4.5 0L 8.39711 11.25L 0.602886 11.25L 4.5 0Z"/>
<path id="path6_fill" d="M 0 0L 6 0L 6 3L 0 3L 0 0Z"/>
<path id="path7_fill" d="M 1 0L 12 3.5L 16 8L 0 5.5L 1 0Z"/>
<path id="path8_fill" d="M 19.6242 19.724C 19.8042 19.652 19.9542 19.616 20.0742 19.616C 20.2662 19.616 20.4102 19.688 20.5062 19.832C 20.6022 19.976 20.6502 20.162 20.6502 20.39C 20.6502 20.75 20.5602 21.056 20.3802 21.308C 20.2122 21.56 19.9182 21.788 19.4982 21.992C 18.7902 22.328 17.8722 22.598 16.7442 22.802C 15.6162 22.994 14.5062 23.09 13.4142 23.09C 11.9022 23.09 10.6362 22.922 9.61618 22.586C 8.59618 22.238 7.83418 21.764 7.33018 21.164C 6.83818 20.564 6.59218 19.886 6.59218 19.13C 6.59218 18.098 6.92218 17.222 7.58218 16.502C 8.25418 15.77 9.23818 15.242 10.5342 14.918C 9.82618 14.714 9.28018 14.354 8.89618 13.838C 8.52418 13.322 8.33818 12.746 8.33818 12.11C 8.33818 11.246 8.60818 10.484 9.14818 9.824C 9.70018 9.152 10.4382 8.636 11.3622 8.276C 12.2862 7.916 13.3002 7.736 14.4042 7.736C 15.8922 7.736 17.0082 8.06 17.7522 8.708C 18.4962 9.344 18.8682 10.172 18.8682 11.192C 18.8682 11.9 18.7362 12.476 18.4722 12.92C 18.2202 13.352 17.8542 13.568 17.3742 13.568C 17.0382 13.568 16.7742 13.496 16.5822 13.352C 16.3902 13.196 16.2942 12.968 16.2942 12.668C 16.2942 12.464 16.3242 12.242 16.3842 12.002C 16.4442 11.606 16.4742 11.336 16.4742 11.192C 16.4742 10.76 16.3122 10.412 15.9882 10.148C 15.6642 9.872 15.1242 9.734 14.3682 9.734C 13.3482 9.734 12.5322 9.95 11.9202 10.382C 11.3082 10.814 11.0022 11.396 11.0022 12.128C 11.0022 12.692 11.2302 13.16 11.6862 13.532C 12.1542 13.892 12.9102 14.09 13.9542 14.126C 14.2182 14.138 14.4042 14.198 14.5122 14.306C 14.6202 14.414 14.6742 14.594 14.6742 14.846C 14.6742 15.638 14.3142 16.04 13.5942 16.052C 12.5982 16.076 11.7702 16.214 11.1102 16.466C 10.4622 16.718 9.98818 17.042 9.68818 17.438C 9.40018 17.822 9.25618 18.236 9.25618 18.68C 9.25618 19.424 9.60418 19.988 10.3002 20.372C 10.9962 20.744 12.1002 20.93 13.6122 20.93C 14.6082 20.93 15.6582 20.816 16.7622 20.588C 17.8782 20.348 18.8322 20.06 19.6242 19.724ZM 28.1025 19.022C 28.2585 19.022 28.3785 19.1 28.4625 19.256C 28.5585 19.4 28.6065 19.586 28.6065 19.814C 28.6065 20.09 28.5645 20.306 28.4805 20.462C 28.3965 20.618 28.2645 20.756 28.0845 20.876C 27.0525 21.572 26.2965 22.088 25.8165 22.424L 24.6645 23.198C 24.2085 25.682 23.6085 27.632 22.8645 29.048C 22.1325 30.476 21.1965 31.19 20.0565 31.19C 19.4445 31.19 18.9465 30.998 18.5625 30.614C 18.1785 30.242 17.9865 29.75 17.9865 29.138C 17.9865 28.286 18.3225 27.368 18.9945 26.384C 19.6665 25.412 20.9265 24.212 22.7745 22.784L 22.8825 22.082C 22.6785 22.406 22.4085 22.658 22.0725 22.838C 21.7485 23.006 21.4245 23.09 21.1005 23.09C 20.3565 23.09 19.7625 22.82 19.3185 22.28C 18.8745 21.74 18.6525 21.032 18.6525 20.156C 18.6525 19.196 18.8745 18.29 19.3185 17.438C 19.7625 16.574 20.3505 15.884 21.0825 15.368C 21.8265 14.84 22.6125 14.576 23.4405 14.576C 23.7045 14.576 23.8785 14.63 23.9625 14.738C 24.0585 14.834 24.1365 15.014 24.1965 15.278C 24.4245 15.23 24.6885 15.206 24.9885 15.206C 25.2885 15.206 25.4985 15.254 25.6185 15.35C 25.7505 15.434 25.8165 15.608 25.8165 15.872C 25.8165 16.016 25.8105 16.13 25.7985 16.214C 25.7505 16.586 25.6005 17.528 25.3485 19.04C 25.3005 19.328 25.2465 19.646 25.1865 19.994C 25.1385 20.33 25.0845 20.69 25.0245 21.074C 25.9485 20.354 26.8365 19.718 27.6885 19.166C 27.8445 19.07 27.9825 19.022 28.1025 19.022ZM 21.7485 21.272C 22.0245 21.272 22.2885 21.104 22.5405 20.768C 22.7925 20.432 22.9725 19.952 23.0805 19.328L 23.6565 16.25C 23.1645 16.262 22.7085 16.454 22.2885 16.826C 21.8685 17.186 21.5325 17.666 21.2805 18.266C 21.0285 18.866 20.9025 19.502 20.9025 20.174C 20.9025 20.546 20.9745 20.822 21.1185 21.002C 21.2745 21.182 21.4845 21.272 21.7485 21.272ZM 20.2545 29.444C 20.5545 29.444 20.8905 29.084 21.2625 28.364C 21.6465 27.644 22.0125 26.498 22.3605 24.926C 21.4365 25.718 20.7705 26.432 20.3625 27.068C 19.9545 27.704 19.7505 28.262 19.7505 28.742C 19.7505 28.946 19.7865 29.114 19.8585 29.246C 19.9425 29.378 20.0745 29.444 20.2545 29.444ZM 36.54 19.022C 36.696 19.022 36.816 19.1 36.9 19.256C 36.996 19.4 37.044 19.586 37.044 19.814C 37.044 20.09 37.002 20.306 36.918 20.462C 36.834 20.618 36.702 20.756 36.522 20.876C 35.49 21.572 34.734 22.088 34.254 22.424L 33.102 23.198C 32.646 25.682 32.046 27.632 31.302 29.048C 30.57 30.476 29.634 31.19 28.494 31.19C 27.882 31.19 27.384 30.998 27 30.614C 26.616 30.242 26.424 29.75 26.424 29.138C 26.424 28.286 26.76 27.368 27.432 26.384C 28.104 25.412 29.364 24.212 31.212 22.784L 31.32 22.082C 31.116 22.406 30.846 22.658 30.51 22.838C 30.186 23.006 29.862 23.09 29.538 23.09C 28.794 23.09 28.2 22.82 27.756 22.28C 27.312 21.74 27.09 21.032 27.09 20.156C 27.09 19.196 27.312 18.29 27.756 17.438C 28.2 16.574 28.788 15.884 29.52 15.368C 30.264 14.84 31.05 14.576 31.878 14.576C 32.142 14.576 32.316 14.63 32.4 14.738C 32.496 14.834 32.574 15.014 32.634 15.278C 32.862 15.23 33.126 15.206 33.426 15.206C 33.726 15.206 33.936 15.254 34.056 15.35C 34.188 15.434 34.254 15.608 34.254 15.872C 34.254 16.016 34.248 16.13 34.236 16.214C 34.188 16.586 34.038 17.528 33.786 19.04C 33.738 19.328 33.684 19.646 33.624 19.994C 33.576 20.33 33.522 20.69 33.462 21.074C 34.386 20.354 35.274 19.718 36.126 19.166C 36.282 19.07 36.42 19.022 36.54 19.022ZM 30.186 21.272C 30.462 21.272 30.726 21.104 30.978 20.768C 31.23 20.432 31.41 19.952 31.518 19.328L 32.094 16.25C 31.602 16.262 31.146 16.454 30.726 16.826C 30.306 17.186 29.97 17.666 29.718 18.266C 29.466 18.866 29.34 19.502 29.34 20.174C 29.34 20.546 29.412 20.822 29.556 21.002C 29.712 21.182 29.922 21.272 30.186 21.272ZM 28.692 29.444C 28.992 29.444 29.328 29.084 29.7 28.364C 30.084 27.644 30.45 26.498 30.798 24.926C 29.874 25.718 29.208 26.432 28.8 27.068C 28.392 27.704 28.188 28.262 28.188 28.742C 28.188 28.946 28.224 29.114 28.296 29.246C 28.38 29.378 28.512 29.444 28.692 29.444ZM 42.0439 14.612C 42.3199 14.612 42.5119 14.648 42.6199 14.72C 42.7279 14.792 42.7819 14.912 42.7819 15.08C 42.7819 15.368 42.6259 16.394 42.3139 18.158C 42.0379 19.85 41.8759 20.852 41.8279 21.164C 41.3839 24.248 40.7719 26.69 39.9919 28.49C 39.2119 30.29 38.1739 31.19 36.8779 31.19C 36.2659 31.19 35.7679 30.998 35.3839 30.614C 34.9999 30.242 34.8079 29.75 34.8079 29.138C 34.8079 28.574 34.9339 27.998 35.1859 27.41C 35.4499 26.822 35.9299 26.144 36.6259 25.376C 37.3339 24.62 38.3299 23.75 39.6139 22.766L 39.6679 22.352C 39.7519 21.908 39.8479 21.272 39.9559 20.444C 39.7159 21.308 39.3799 21.968 38.9479 22.424C 38.5159 22.868 38.0599 23.09 37.5799 23.09C 37.0399 23.09 36.5959 22.844 36.2479 22.352C 35.9119 21.848 35.7439 21.224 35.7439 20.48C 35.7439 19.58 35.8039 18.758 35.9239 18.014C 36.0439 17.258 36.2419 16.46 36.5179 15.62C 36.6379 15.26 36.8059 15.002 37.0219 14.846C 37.2379 14.69 37.5799 14.612 38.0479 14.612C 38.3119 14.612 38.4919 14.654 38.5879 14.738C 38.6959 14.822 38.7499 14.948 38.7499 15.116C 38.7499 15.212 38.6839 15.536 38.5519 16.088C 38.4319 16.532 38.3359 16.934 38.2639 17.294C 38.1679 17.786 38.0839 18.26 38.0119 18.716C 37.9399 19.16 37.9039 19.526 37.9039 19.814C 37.9039 20.27 38.0299 20.498 38.2819 20.498C 38.4619 20.498 38.6839 20.318 38.9479 19.958C 39.2239 19.598 39.5119 19.052 39.8119 18.32C 40.1239 17.588 40.4239 16.688 40.7119 15.62C 40.8079 15.26 40.9519 15.002 41.1439 14.846C 41.3479 14.69 41.6479 14.612 42.0439 14.612ZM 37.0759 29.444C 37.3759 29.444 37.7119 29.096 38.0839 28.4C 38.4559 27.704 38.8279 26.546 39.1999 24.926C 38.2759 25.706 37.6039 26.414 37.1839 27.05C 36.7759 27.698 36.5719 28.262 36.5719 28.742C 36.5719 28.946 36.6079 29.114 36.6799 29.246C 36.7639 29.378 36.8959 29.444 37.0759 29.444Z"/>
<path id="path9_fill" d="M 12.8002 18.986C 12.9562 18.986 13.0762 19.058 13.1602 19.202C 13.2562 19.346 13.3042 19.544 13.3042 19.796C 13.3042 20.276 13.1902 20.648 12.9622 20.912C 12.5182 21.452 11.8882 21.95 11.0722 22.406C 10.2682 22.862 9.4042 23.09 8.4802 23.09C 7.2202 23.09 6.2422 22.748 5.5462 22.064C 4.8502 21.38 4.5022 20.444 4.5022 19.256C 4.5022 18.428 4.6762 17.66 5.0242 16.952C 5.3722 16.232 5.8522 15.662 6.4642 15.242C 7.0882 14.822 7.7902 14.612 8.5702 14.612C 9.2662 14.612 9.8242 14.822 10.2442 15.242C 10.6642 15.65 10.8742 16.208 10.8742 16.916C 10.8742 17.744 10.5742 18.458 9.9742 19.058C 9.3862 19.646 8.3842 20.114 6.9682 20.462C 7.2682 21.014 7.8382 21.29 8.6782 21.29C 9.2182 21.29 9.8302 21.104 10.5142 20.732C 11.2102 20.348 11.8102 19.85 12.3142 19.238C 12.4582 19.07 12.6202 18.986 12.8002 18.986ZM 8.2642 16.376C 7.8202 16.376 7.4422 16.634 7.1302 17.15C 6.8302 17.666 6.6802 18.29 6.6802 19.022L 6.6802 19.058C 7.3882 18.89 7.9462 18.638 8.3542 18.302C 8.7622 17.966 8.9662 17.576 8.9662 17.132C 8.9662 16.904 8.9002 16.724 8.7682 16.592C 8.6482 16.448 8.4802 16.376 8.2642 16.376ZM 15.1866 23.486C 14.5626 23.486 14.0826 23.342 13.7466 23.054C 13.4226 22.766 13.2606 22.442 13.2606 22.082C 13.2606 21.77 13.3746 21.5 13.6026 21.272C 13.8306 21.044 14.1666 20.93 14.6106 20.93C 14.7666 20.93 14.9466 20.948 15.1506 20.984C 15.3666 21.008 15.5286 21.026 15.6366 21.038C 15.6246 20.726 15.5526 20.432 15.4206 20.156C 15.3006 19.88 15.1446 19.616 14.9526 19.364C 14.7606 19.1 14.5806 18.872 14.4126 18.68C 14.0406 19.388 13.6686 19.976 13.2966 20.444C 12.9366 20.912 12.5406 21.356 12.1086 21.776C 11.8926 21.992 11.6646 22.1 11.4246 22.1C 11.2326 22.1 11.0766 22.034 10.9566 21.902C 10.8366 21.758 10.7766 21.584 10.7766 21.38C 10.7766 21.14 10.8606 20.918 11.0286 20.714L 11.2626 20.426C 11.9226 19.61 12.4206 18.938 12.7566 18.41C 12.9606 18.062 13.2006 17.6 13.4766 17.024C 13.7526 16.436 14.0226 15.83 14.2866 15.206C 14.5146 14.678 14.9886 14.414 15.7086 14.414C 16.0446 14.414 16.2786 14.444 16.4106 14.504C 16.5426 14.564 16.6086 14.66 16.6086 14.792C 16.6086 14.864 16.5846 14.978 16.5366 15.134C 16.4886 15.29 16.4226 15.446 16.3386 15.602C 16.1226 16.034 16.0146 16.4 16.0146 16.7C 16.0146 16.88 16.0746 17.078 16.1946 17.294C 16.3266 17.51 16.5246 17.78 16.7886 18.104C 17.1726 18.608 17.4606 19.04 17.6526 19.4C 17.8566 19.748 17.9586 20.132 17.9586 20.552C 17.9586 20.672 17.9466 20.84 17.9226 21.056C 18.5106 20.828 19.2006 20.222 19.9926 19.238C 20.1366 19.07 20.2986 18.986 20.4786 18.986C 20.6346 18.986 20.7546 19.058 20.8386 19.202C 20.9346 19.346 20.9826 19.544 20.9826 19.796C 20.9826 20.252 20.8686 20.624 20.6406 20.912C 20.0406 21.656 19.4646 22.166 18.9126 22.442C 18.3726 22.706 17.7006 22.85 16.8966 22.874C 16.4166 23.282 15.8466 23.486 15.1866 23.486ZM 22.4902 16.322C 22.4662 16.922 22.4543 17.39 22.4543 17.726C 22.4543 18.59 22.4962 19.268 22.5802 19.76C 22.6762 20.24 22.8262 20.588 23.0302 20.804C 23.2462 21.008 23.5403 21.11 23.9123 21.11C 24.1043 21.11 24.3323 21.05 24.5963 20.93C 24.8603 20.81 25.1002 20.654 25.3163 20.462C 25.4483 20.342 25.5802 20.282 25.7123 20.282C 25.8563 20.282 25.9703 20.366 26.0542 20.534C 26.1502 20.69 26.1983 20.882 26.1983 21.11C 26.1983 21.338 26.1502 21.56 26.0542 21.776C 25.9703 21.992 25.8383 22.172 25.6583 22.316C 25.0343 22.832 24.3262 23.09 23.5343 23.09C 22.3942 23.09 21.5602 22.616 21.0323 21.668C 20.5043 20.708 20.2402 19.46 20.2402 17.924C 20.2402 17.396 20.2582 16.862 20.2942 16.322L 19.5922 16.322C 19.2323 16.322 18.9863 16.256 18.8543 16.124C 18.7342 15.992 18.6743 15.782 18.6743 15.494C 18.6743 14.822 18.9443 14.486 19.4842 14.486L 20.5102 14.486C 20.7142 13.166 21.0262 11.96 21.4462 10.868C 21.8663 9.776 22.3702 8.906 22.9582 8.258C 23.5582 7.61 24.2003 7.286 24.8843 7.286C 25.3882 7.286 25.7843 7.508 26.0723 7.952C 26.3603 8.396 26.5042 8.954 26.5042 9.626C 26.5042 11.486 25.7242 13.106 24.1642 14.486L 26.1803 14.486C 26.3723 14.486 26.5102 14.528 26.5942 14.612C 26.6782 14.696 26.7203 14.852 26.7203 15.08C 26.7203 15.908 26.0422 16.322 24.6863 16.322L 22.4902 16.322ZM 24.3983 9.014C 24.2183 9.014 24.0143 9.242 23.7863 9.698C 23.5703 10.142 23.3603 10.766 23.1562 11.57C 22.9642 12.362 22.8023 13.244 22.6702 14.216C 23.3783 13.604 23.9062 12.92 24.2542 12.164C 24.6142 11.396 24.7943 10.7 24.7943 10.076C 24.7943 9.368 24.6623 9.014 24.3983 9.014Z"/>
<path id="path10_stroke" d="M 34.087 0L 34.087 -2L 34.087 -2L 34.087 0ZM 34.087 92L 34.087 90L 34.087 90L 34.087 92ZM 34.087 -2C 27.563 -1.99999 22.0903 1.48677 17.6446 6.38198C 13.2009 11.275 9.60158 17.7631 6.77163 24.2643C 3.93309 30.7852 1.82139 37.4304 0.395365 42.7218C -1.01694 47.9623 -1.79402 52.0152 -1.90581 53.3307L 2.07983 53.6693C 2.15925 52.7348 2.85277 48.9753 4.25757 43.7626C 5.64865 38.6009 7.70055 32.1523 10.4392 25.8608C 13.1865 19.5495 16.5779 13.5063 20.6057 9.07117C 24.6316 4.63825 29.1111 2.00001 34.087 2L 34.087 -2ZM -1.90581 53.3307C -2.11074 55.7422 -2.37687 65.7641 2.00194 75.274C 4.20772 80.0645 7.61553 84.7739 12.8412 88.2783C 18.0752 91.7882 25.0003 94 34.087 94L 34.087 90C 25.6737 90 19.551 87.9618 15.0691 84.9561C 10.5787 81.9449 7.60232 77.873 5.63529 73.601C 1.6685 64.9859 1.90236 55.7578 2.07983 53.6693L -1.90581 53.3307ZM 34.087 2C 39.063 2.00001 43.5425 4.63825 47.5683 9.07117C 51.5961 13.5063 54.9876 19.5495 57.7349 25.8608C 60.4735 32.1523 62.5254 38.6009 63.9165 43.7626C 65.3213 48.9753 66.0148 52.7348 66.0943 53.6693L 70.0799 53.3307C 69.9681 52.0152 69.191 47.9623 67.7787 42.7218C 66.3527 37.4304 64.241 30.7852 61.4025 24.2643C 58.5725 17.7631 54.9732 11.275 50.5295 6.38198C 46.0838 1.48677 40.6111 -1.99999 34.087 -2L 34.087 2ZM 66.0943 53.6693C 66.2717 55.7578 66.5056 64.9859 62.5388 73.601C 60.5718 77.873 57.5954 81.9449 53.105 84.9561C 48.623 87.9618 42.5004 90 34.087 90L 34.087 94C 43.1737 94 50.0989 91.7882 55.3329 88.2783C 60.5586 84.7739 63.9664 80.0645 66.1721 75.274C 70.551 65.7641 70.2848 55.7422 70.0799 53.3307L 66.0943 53.6693Z"/>
<path id="path11_fill" d="M 9.06013 0L 16.9064 21.1316L 1.21383 21.1316L 9.06013 0Z"/>
</defs>
</svg>
